<svg id="Layer_1" data-name="Layer 1" xmlns="http://www.w3.org/2000/svg" viewBox="0 0 330.49 330.49"><defs><style>.cls-1{fill:#fff;}</style></defs><title>icon</title><path d="M327.23,265.2a11.09,11.09,0,0,0-15.68,0v0l0,0a55.58,55.58,0,0,1-95-39.22l0-23a2.14,2.14,0,0,1,2.14-2.14,2.18,2.18,0,0,1,2.2,2.14h0v23a51.31,51.31,0,1,0,102.62,0A11.26,11.26,0,0,0,301,226a28.85,28.85,0,0,1-57.7,0h0l0-23a2.14,2.14,0,0,1,4.28,0h0v23a24.59,24.59,0,1,0,49.18,0V214.72a11.23,11.23,0,0,0-22.45,0V226a2.18,2.18,0,0,1-2.2,2.14A2.14,2.14,0,0,1,270,226l0-121.18a104.75,104.75,0,1,0-209.5,0V226a2.14,2.14,0,1,1-4.28,0V214.72a11.26,11.26,0,0,0-22.51,0V226a24.6,24.6,0,0,0,49.2,0V203a2.14,2.14,0,1,1,4.27,0v23h0a28.85,28.85,0,0,1-57.7,0A11.23,11.23,0,1,0,7,226a51.31,51.31,0,0,0,102.62,0V203a2.14,2.14,0,1,1,4.27,0v23a55.59,55.59,0,0,1-95,39.22v0a11.1,11.1,0,0,0-15.7,15.7v0a77.8,77.8,0,0,0,52.94,22.8v0h4.28v-.05a78.16,78.16,0,0,0,75.9-78V203a2.15,2.15,0,0,1,4.29,0v22.73a82.41,82.41,0,0,1-82.3,82.34,11.21,11.21,0,1,0,0,22.42A104.88,104.88,0,0,0,163,225.82V203a2.16,2.16,0,0,1,4.31,0h0v22.8A104.91,104.91,0,0,0,272.06,330.45a11.23,11.23,0,0,0,0-22.46,82.42,82.42,0,0,1-82.35-82.3l0-22.7a2.13,2.13,0,1,1,4.25,0h0l0,22.7a78.15,78.15,0,0,0,75.9,78v0l4.27,0a77.74,77.74,0,0,0,52.94-22.8,11.11,11.11,0,0,0,0-15.7Z" transform="translate(0.1)"/><path class="cls-1" d="M203.48,86a12,12,0,1,0,12-12A12,12,0,0,0,203.48,86ZM103,86a12,12,0,1,0,12-12A12,12,0,0,0,103,86Z" transform="translate(0.1)"/></svg>